<?xml version="1.0" encoding="iso-8859-1"?>
<!-- Generator: Adobe Illustrator 19.0.0, SVG Export Plug-In . SVG Version: 6.00 Build 0)  -->
<svg version="1.1" id="Capa_1" xmlns="http://www.w3.org/2000/svg" xmlns:xlink="http://www.w3.org/1999/xlink" x="0px" y="0px"
	 viewBox="0 0 512 512" style="enable-background:new 0 0 512 512;" xml:space="preserve">
<g>
	<g>
		<path d="M493.314,17.44H18.686C8.365,17.44,0,25.806,0,36.127v439.747c0,10.321,8.365,18.686,18.686,18.686h474.628
			c10.321,0,18.686-8.365,18.686-18.686V36.127C512,25.806,503.635,17.44,493.314,17.44z M474.628,457.187H37.372V54.813h437.255
			V457.187z"/>
	</g>
</g>
<g>
	<g>
		<path d="M493.314,131.426H18.686C8.365,131.426,0,139.791,0,150.112s8.365,18.686,18.686,18.686h474.628
			c10.321,0,18.686-8.365,18.686-18.686S503.635,131.426,493.314,131.426z"/>
	</g>
</g>
<g>
	<g>
		<path d="M211.259,293.871l-76.613-84.088c-6.951-7.624-18.761-8.185-26.397-1.227c-7.624,6.951-8.178,18.767-1.227,26.397
			l65.109,71.456l-65.059,70.876c-6.982,7.593-6.478,19.421,1.127,26.397c3.588,3.295,8.116,4.921,12.632,4.921
			c5.052,0,10.091-2.037,13.765-6.054l76.613-83.458C217.75,311.965,217.774,301.021,211.259,293.871z"/>
	</g>
</g>
<g>
	<g>
		<path d="M395.523,369.985H225.479c-10.321,0-18.686,8.365-18.686,18.686c0,10.321,8.365,18.686,18.686,18.686h170.044
			c10.321,0,18.686-8.365,18.686-18.686S405.844,369.985,395.523,369.985z"/>
	</g>
</g>
<g>
</g>
<g>
</g>
<g>
</g>
<g>
</g>
<g>
</g>
<g>
</g>
<g>
</g>
<g>
</g>
<g>
</g>
<g>
</g>
<g>
</g>
<g>
</g>
<g>
</g>
<g>
</g>
<g>
</g>
</svg>
